<?xml version="1.0" encoding="UTF-8" standalone="no"?>
<!-- Created with Inkscape (http://www.inkscape.org/) -->

<svg
   version="1.1"
   width="504.00061"
   height="275.62216"
   id="svg2"
   sodipodi:docname="hardcore museum logo 2.svg"
   inkscape:version="1.4 (86a8ad7, 2024-10-11)"
   inkscape:export-filename="hardcore museum logo 2.svg"
   inkscape:export-xdpi="96"
   inkscape:export-ydpi="96"
   xmlns:inkscape="http://www.inkscape.org/namespaces/inkscape"
   xmlns:sodipodi="http://sodipodi.sourceforge.net/DTD/sodipodi-0.dtd"
   xmlns="http://www.w3.org/2000/svg"
   xmlns:svg="http://www.w3.org/2000/svg"
   xmlns:rdf="http://www.w3.org/1999/02/22-rdf-syntax-ns#"
   xmlns:cc="http://creativecommons.org/ns#"
   xmlns:dc="http://purl.org/dc/elements/1.1/">
  <sodipodi:namedview
     id="namedview1"
     pagecolor="#ffffff"
     bordercolor="#000000"
     borderopacity="0.25"
     inkscape:showpageshadow="2"
     inkscape:pageopacity="0.0"
     inkscape:pagecheckerboard="0"
     inkscape:deskcolor="#d1d1d1"
     showgrid="false"
     inkscape:zoom="2.070353"
     inkscape:cx="222.42584"
     inkscape:cy="180.40402"
     inkscape:window-width="1920"
     inkscape:window-height="1009"
     inkscape:window-x="-8"
     inkscape:window-y="-8"
     inkscape:window-maximized="1"
     inkscape:current-layer="svg2"
     inkscape:export-bgcolor="#ffffff00">
    <inkscape:grid
       id="grid4"
       units="px"
       originx="0"
       originy="0"
       spacingx="1"
       spacingy="1"
       empcolor="#0099e5"
       empopacity="0.30196078"
       color="#0099e5"
       opacity="0.14901961"
       empspacing="5"
       enabled="true"
       visible="false" />
  </sodipodi:namedview>
  <defs
     id="defs4" />
  <metadata
     id="metadata7">
    <rdf:RDF>
      <cc:Work
         rdf:about="">
        <dc:format>image/svg+xml</dc:format>
        <dc:type
           rdf:resource="http://purl.org/dc/dcmitype/StillImage" />
      </cc:Work>
    </rdf:RDF>
  </metadata>
  <g
     transform="translate(8.5449219e-7,-776.74002)"
     id="layer1"
     style="display:inline">
    <g
       transform="translate(-117.071,30.234985)"
       id="g3768"
       style="display:inline">
      <rect
         width="504"
         height="275.62201"
         x="117.071"
         y="746.50519"
         id="rect2998"
         style="display:none;fill:#ffffc1;fill-opacity:1;stroke:none" />
      <path
         d="m 117.07143,1003.134 v -18.99277 l 3,-2.13619 3,-2.13619 -0.0406,-91.6819 -0.0406,-91.68191 -2.95936,-3.46223 -2.95936,-3.46222 0.0373,-21.53778 0.0373,-21.53777 7.20933,8 c 3.96513,4.4 11.37336,12.34362 16.46273,17.65248 l 9.25339,9.65249 v 15.2045 c 0,13.10428 -0.2072,15.125 -1.5,14.6289 -1.30993,-0.50266 -1.5,2.76086 -1.5,25.75496 v 26.33057 l 5.66678,1.13805 c 3.11673,0.62593 6.15423,1.13841 6.75,1.13884 0.75565,5.6e-4 0.9969,-7.31184 0.79779,-24.18067 -0.26916,-22.8025 -0.39849,-24.26064 -2.2679,-25.57003 -1.82687,-1.27959 -1.97232,-2.48263 -1.85335,-15.32905 0.071,-7.66726 0.4648,-14.14794 0.87509,-14.40152 0.41029,-0.25357 6.86922,2.56331 14.35319,6.25972 l 13.60722,6.72076 0.0356,12.76905 0.0356,12.76905 -2.5,-0.62746 -2.5,-0.62746 v 47.21682 47.21682 l 2.53197,-0.63549 2.53197,-0.63548 -0.28197,11.76209 -0.28197,11.7621 -12,4.34294 c -6.6,2.38862 -12.7875,4.58534 -13.75,4.88161 -1.56354,0.48128 -1.75093,-0.29952 -1.75869,-7.32796 -0.005,-4.32665 -0.29246,-10.22913 -0.63929,-13.11663 -0.58782,-4.89379 -0.48545,-5.25 1.50869,-5.25 1.17661,0 2.15838,-0.5625 2.18171,-1.25 0.20577,-6.06303 -0.21178,-36.2527 -0.50547,-36.54638 -0.20842,-0.20842 -3.1145,-0.627 -6.45795,-0.93017 l -6.079,-0.55123 v 40.63889 c 0,25.53682 0.35981,40.63889 0.96822,40.63889 0.53253,0 4.50944,-1.7305 8.83759,-3.84555 4.32814,-2.11506 9.17994,-4.33523 10.78177,-4.93373 1.60183,-0.59849 6.51242,-2.47664 10.91242,-4.17367 34.04644,-13.13131 83.81435,-22.38849 140,-26.04099 19.60872,-1.27472 71.57908,-1.26735 92.5,0.0131 63.65863,3.89623 121.74028,14.79945 160.36333,30.10378 10.35278,4.10227 29.87133,13.92673 32.71541,16.46697 0.86831,0.77554 1.89754,1.41007 2.28719,1.41007 0.38964,0 0.57921,-9.90041 0.42126,-22.0009 -0.15796,-12.1005 -0.16346,-22.0005 -0.0122,-22 0.15123,4.9e-4 3.41373,1.58156 7.25,3.51347 l 6.97504,3.51257 v 40.15643 40.15641 l -7.25,-6.9685 c -12.82681,-12.32889 -24.79907,-20.44274 -43.25,-29.31141 -36.65704,-17.61968 -79.43053,-28.42456 -137,-34.60716 -20.41742,-2.1927 -79.10527,-3.06689 -102.26864,-1.52335 -76.62422,5.10602 -140.91345,21.85153 -181.62673,47.30858 -12.46118,7.79164 -19.67862,13.89794 -28.45554,24.07464 l -4.14912,4.8109 v -18.9928 z m 465.5,-53.3395 c -6.6,-2.71918 -17.175,-6.43934 -23.5,-8.26702 l -11.5,-3.32305 -0.28168,-11.59352 c -0.28056,-11.54733 -0.27259,-11.59255 2,-11.34969 l 2.28168,0.24382 v -43.5 -43.5 l -2.25,0.23821 c -2.22586,0.23566 -2.25,0.10434 -2.25,-12.24165 v -12.47985 l 10.75,-5.47844 c 5.9125,-3.01314 16.93922,-8.82114 24.50383,-12.90666 7.56461,-4.08553 13.92287,-7.13649 14.12947,-6.77992 0.75753,1.30744 0.63082,46.6862 -0.13357,47.83508 -0.87327,1.31252 -12.51956,7.31323 -14.19364,7.31323 -0.65845,0 -1.05609,-3.19379 -1.05609,-8.48233 v -8.48233 l -4.75,1.76297 -4.75,1.76298 -0.26914,21.59038 -0.26915,21.59038 6.7475,-1.87102 c 9.94845,-2.75863 9.40711,-3.19864 9.07832,7.37897 l -0.28753,9.25 -4.5,0.25374 c -2.475,0.13956 -5.97175,0.49918 -7.77055,0.79917 l -3.27055,0.54543 0.27055,20.09117 0.27055,20.09117 4.5,1.34448 c 2.475,0.73946 4.6125,1.35131 4.75,1.35966 0.1375,0.008 0.25,-2.47875 0.25,-5.52688 v -5.54207 l 7.75,0.29207 7.75,0.29206 v 20.91756 c 0,13.14561 -0.37155,20.99156 -1,21.11672 -0.55,0.10953 -6.4,-2.02563 -13,-4.74482 z m -392.5,-22.27041 c 0,-9.67741 0.24483,-11.51905 1.53139,-11.51905 0.84226,0 1.74046,-0.5625 1.996,-1.25 0.56705,-1.52555 11.47261,-81.06452 11.47261,-83.67466 0,-1.14844 -0.95518,-2.09826 -2.5,-2.48598 -2.47577,-0.62138 -2.5,-0.73332 -2.5,-11.5494 0,-6.00706 0.42781,-11.18633 0.95068,-11.50948 0.52287,-0.32315 9.29787,1.53555 19.5,4.13045 l 18.54932,4.718 v 10.91894 10.91895 l -2.5,-0.62746 c -1.63577,-0.41055 -2.5,-0.20885 -2.5,0.58348 0,1.29072 10.67584,64.78143 11.53112,68.57716 0.3167,1.4055 1.2505,2.25 2.48793,2.25 1.83472,0 1.98095,0.69693 1.98095,9.44098 0,5.19254 -0.33773,9.64971 -0.7505,9.90482 -0.65025,0.40188 -23.21982,4.6542 -24.70256,4.6542 -0.30082,0 -0.54694,-4.66875 -0.54694,-10.375 v -10.375 l 3.04819,-0.60964 c 3.39339,-0.67868 3.35697,0.27438 0.54031,-14.14036 l -1.1724,-6 -7.07939,-0.29121 -7.07939,-0.29122 -1.18836,9.79122 c -0.6536,5.38516 -1.41682,10.57871 -1.69605,11.54121 -0.36916,1.27251 0.0656,1.75 1.59353,1.75 2.02161,0 2.09047,0.40498 1.81739,10.68879 l -0.28383,10.6888 -9,2.26293 c -4.95,1.24461 -10.0125,2.51823 -11.25,2.83026 -2.23595,0.56378 -2.25,0.49539 -2.25,-10.95173 z m 33,-54.84291 c 0,-2.027 -3.01674,-21.8462 -3.75603,-24.67614 -0.42607,-1.63098 -1.24531,2.1919 -2.35679,10.99769 -1.27763,10.12223 -1.41404,13.68199 -0.54543,14.23468 1.97655,1.25769 6.65825,0.86658 6.65825,-0.55623 z m 309.5,61.86393 c -2.75,-0.70301 -7.562,-1.81369 -10.69333,-2.46817 l -5.69333,-1.18997 -0.30667,-20.53115 c -0.30169,-20.19773 -0.34501,-20.56217 -2.66745,-22.44097 -1.29844,-1.0504 -2.76094,-1.90981 -3.25,-1.90981 -0.48907,0 -0.88922,5.175 -0.88922,11.5 0,7 0.3913,11.5 1,11.5 0.60365,0 1,4.19315 1,10.57946 v 10.57945 l -2.75,-0.53428 c -1.5125,-0.29385 -7.8125,-1.28323 -14,-2.19861 l -11.25,-1.66433 v -9.9603 -9.9603 l 3,0.65891 3,0.65891 v -35.15891 -35.15891 l -3,0.65891 -3,0.65891 v -9.932 -9.932 l 15.75,-3.34165 c 8.6625,-1.83791 17.71396,-3.36676 20.11436,-3.39746 3.82923,-0.049 4.76028,0.40221 7.59339,3.67964 4.422,5.1155 6.48316,12.09515 7.80531,26.43093 1.5011,16.27605 0.0611,29.41339 -4.11084,37.50253 l -2.93372,5.68838 2.44408,3.59679 c 3.47994,5.12118 5.40707,11.13431 5.75483,17.9565 0.20697,4.06005 0.81496,6.28618 1.94194,7.11025 1.3429,0.98194 1.64065,3.13063 1.64065,11.83942 0,5.85187 -0.3375,10.59887 -0.75,10.5489 -0.4125,-0.05 -3,-0.66606 -5.75,-1.36907 z m -19.8997,-62.30538 c 2.7743,-1.85246 3.3997,-5.61371 3.3997,-20.44644 0,-16.74822 -0.94783,-20.22203 -5.34656,-19.59515 -2.11323,0.30117 -2.15849,0.68499 -2.42415,20.5569 -0.25153,18.81599 -0.14531,20.24892 1.5,20.23469 0.97389,-0.008 2.26584,-0.34592 2.87101,-0.75 z m -258.6003,43.76531 v -10 l 2.75,4.7e-4 2.75,4.7e-4 -0.27608,-33.50047 -0.27608,-33.50047 h -2.47392 -2.47392 v -10.82118 -10.82119 l 16.25,2.66679 c 8.9375,1.46673 17.375,3.01615 18.75,3.44316 4.65006,1.44409 10.79503,7.41465 13.68191,13.29357 2.64282,5.38193 2.81586,6.51627 2.78231,18.23885 -0.031,10.84283 -0.34159,13.18656 -2.34247,17.6787 -1.26868,2.84828 -3.13982,5.93266 -4.15808,6.85418 -1.79298,1.62262 -1.77109,1.75897 0.69392,4.3213 3.54335,3.68327 6.29441,9.94922 6.32045,14.39582 0.0156,2.65691 0.4592,3.75 1.52196,3.75 1.22629,0 1.5,1.70472 1.5,9.34245 v 9.34244 l -10.75,0.98528 c -5.9125,0.5419 -11.0875,0.81125 -11.5,0.59854 -0.4125,-0.21271 -0.75,-5.78592 -0.75,-12.38491 0,-13.79393 -1.19837,-19.78208 -4.59801,-22.97587 l -2.40199,-2.25656 v 9.67432 c 0,7.93272 0.27003,9.67431 1.5,9.67431 1.22807,0 1.5,1.72222 1.5,9.5 0,5.225 -0.3375,9.51426 -0.75,9.53168 -0.4125,0.0174 -5.475,0.67817 -11.25,1.46832 -5.775,0.79015 -11.7375,1.45089 -13.25,1.46832 l -2.75,0.0317 v -10 z m 31.4433,-44.22251 c 1.20048,-1.71393 1.5567,-4.98823 1.5567,-14.30887 0,-13.11055 -0.58552,-14.89749 -5.25,-16.02229 l -2.75,-0.66315 v 16.60841 16.60841 h 2.4433 c 1.39121,0 3.11361,-0.95701 4,-2.22251 z m 158.86931,48.21038 c -4.94008,-2.51868 -8.80021,-7.26509 -11.67529,-14.35591 -1.87869,-4.63346 -2.1157,-7.60894 -2.43989,-30.63196 -0.40183,-28.53653 0.31255,-34.40759 5.05848,-41.57264 4.15674,-6.27552 10.23234,-9.5953 18.56892,-10.14628 5.86082,-0.38734 7.3454,-0.0959 12.16898,2.38888 6.15415,3.1702 10.60297,8.67358 12.04788,14.90374 1.29023,5.56321 1.19504,57.22404 -0.11671,63.34052 -1.27355,5.93835 -4.0417,10.28697 -9.18078,14.42252 -3.36528,2.70813 -4.61303,3.0621 -12,3.40423 -6.93171,0.32103 -8.91084,0.0419 -12.43159,-1.7531 z m 14.68739,-17.98787 c 1.9028,-1.9028 2,-3.33333 2,-29.4349 0,-15.0892 -0.42422,-28.55069 -0.94272,-29.91443 -1.26716,-3.33289 -4.65549,-4.32426 -7.12894,-2.08582 -1.82084,1.64784 -1.92834,3.37794 -1.92834,31.03343 0,29.13209 0.0118,29.29662 2.22251,30.84502 2.86015,2.00333 3.36998,1.96421 5.77749,-0.4433 z m -144,9.25741 c 0,-9.22273 0.009,-9.25741 2.5151,-9.25741 h 2.51511 l -0.26511,-29.25 -0.2651,-29.25 -2.25,-0.31955 c -2.14321,-0.30438 -2.25,-0.7472 -2.25,-9.32946 v -9.0099 l 2.75,0.52327 c 1.5125,0.2878 9.5,0.82069 17.75,1.18421 9.36457,0.41262 16.31493,1.20416 18.5,2.10686 4.48141,1.85137 9.5831,6.74918 12.33763,11.84457 2.03374,3.76205 2.18086,5.56363 2.47316,30.28498 0.33534,28.36176 -0.26862,33.18283 -5.03431,40.1859 -5.06246,7.43915 -7.30871,7.95057 -40.52648,9.22695 l -8.25,0.317 z m 32.59501,-12.3603 c 1.74202,-1.923 1.9307,-4.1468 2.20547,-25.99498 l 0.30048,-23.89207 -2.50502,-2.50503 c -1.57664,-1.57664 -3.6337,-2.50503 -5.55049,-2.50503 h -3.04545 v 28.5 28.5 h 3.34501 c 2.12898,0 4.03755,-0.76448 5.25,-2.10289 z m 40.89023,20.15875 c -3.76915,-1.52911 -8.52251,-7.44227 -10.01057,-12.45311 -1.15449,-3.8876 -1.46514,-11.16849 -1.43078,-33.53425 0.0467,-30.40573 0.38701,-33.0241 5.05862,-38.92369 4.84775,-6.12202 16.53548,-9.18796 21.57351,-5.65918 1.87624,1.31417 2.18683,1.31417 2.69112,0 0.43882,-1.14353 2.41949,-1.48563 8.60148,-1.48563 h 8.03138 v 13.85754 13.85755 l -6.14669,0.64245 c -11.46235,1.19806 -10.85331,1.51553 -10.85331,-5.65754 0,-3.56667 -0.52063,-6.82063 -1.2,-7.5 -1.83712,-1.83712 -5.60769,-1.42786 -6.76482,0.73426 -0.6432,1.20184 -1.03518,12.58634 -1.03518,30.06574 0,17.4794 0.39198,28.8639 1.03518,30.06574 1.15713,2.16212 4.9277,2.57138 6.76482,0.73426 0.74056,-0.74056 1.2,-4.37778 1.2,-9.5 v -8.3 h 8.5 8.5 v 10.78811 c 0,9.22089 -0.32687,11.42556 -2.25,15.17601 -3.39022,6.61153 -6.94978,8.04956 -19.7344,7.97249 -5.78358,-0.0349 -11.42224,-0.4312 -12.53036,-0.88075 z"
         id="path2996"
         style="display:inline;fill:#000000" />
    </g>
  </g>
  <g
     transform="translate(58.685644,-803.18615)"
     id="g2"
     style="display:inline" />
  <text
     xml:space="preserve"
     style="font-size:61.3333px;text-align:center;writing-mode:lr-tb;direction:ltr;text-anchor:middle;fill:#808080"
     id="text4"
     y="262.7663"
     x="252.00031"><tspan
       sodipodi:role="line"
       id="tspan4"
       x="252.00031"
       y="262.7663"
       style="font-style:normal;font-variant:normal;font-weight:bold;font-stretch:normal;font-size:61.3333px;font-family:Arial;-inkscape-font-specification:'Arial, Bold';font-variant-ligatures:normal;font-variant-caps:normal;font-variant-numeric:normal;font-variant-east-asian:normal;fill:#000000">MUSEUM</tspan></text>
</svg>
